<?xml version="1.0" encoding="UTF-8"?>
<svg xmlns="http://www.w3.org/2000/svg" width="600" height="900" viewBox="0 0 600 900">
<defs>
  <radialGradient id="bgG" cx="50%" cy="40%" r="60%"><stop offset="0%" stop-color="#F8FAFC"/><stop offset="100%" stop-color="#E2E8F0"/></radialGradient>
  <linearGradient id="glass" x1="0%" y1="0%" x2="100%" y2="0%"><stop offset="0%" stop-color="#E2E8F0"/><stop offset="15%" stop-color="#F8FAFC"/><stop offset="50%" stop-color="#FFFFFF"/><stop offset="85%" stop-color="#F1F5F9"/><stop offset="100%" stop-color="#CBD5E1"/></linearGradient>
  <linearGradient id="capGrad" x1="0%" y1="0%" x2="100%" y2="0%"><stop offset="0%" stop-color="#1D4ED8"/><stop offset="20%" stop-color="#3B82F6"/><stop offset="50%" stop-color="#60A5FA"/><stop offset="80%" stop-color="#3B82F6"/><stop offset="100%" stop-color="#1E40AF"/></linearGradient>
  <linearGradient id="silver" x1="0%" y1="0%" x2="100%" y2="0%"><stop offset="0%" stop-color="#94A3B8"/><stop offset="20%" stop-color="#E2E8F0"/><stop offset="50%" stop-color="#F8FAFC"/><stop offset="80%" stop-color="#CBD5E1"/><stop offset="100%" stop-color="#64748B"/></linearGradient>
  <linearGradient id="shine" x1="0%" y1="0%" x2="100%" y2="0%"><stop offset="0%" stop-color="rgba(255,255,255,0)"/><stop offset="30%" stop-color="rgba(255,255,255,0.8)"/><stop offset="50%" stop-color="rgba(255,255,255,0.9)"/><stop offset="70%" stop-color="rgba(255,255,255,0.6)"/><stop offset="100%" stop-color="rgba(255,255,255,0)"/></linearGradient>
  <filter id="sh" x="-20%" y="-10%" width="140%" height="130%"><feDropShadow dx="0" dy="12" stdDeviation="20" flood-color="#000" flood-opacity="0.12"/></filter>
  <filter id="gsh" x="-30%" y="-30%" width="160%" height="160%"><feGaussianBlur in="SourceAlpha" stdDeviation="15"/><feOffset dx="0" dy="20"/><feComponentTransfer><feFuncA type="linear" slope="0.15"/></feComponentTransfer></filter>
</defs>
<rect width="600" height="900" fill="#FFFFFF"/>
<rect width="600" height="900" fill="url(#bgG)" opacity="0.4"/>
<ellipse cx="300" cy="710" rx="170" ry="25" fill="#000" filter="url(#gsh)"/>
<rect x="160" y="250" width="280" height="480" rx="45" fill="url(#glass)" filter="url(#sh)"/>
<ellipse cx="300" cy="660" rx="110" ry="40" fill="#FFFFFF" opacity="0.85"/><ellipse cx="280" cy="645" rx="50" ry="25" fill="#FFFFFF" opacity="0.9"/>
<rect x="230" y="220" width="140" height="35" fill="url(#glass)"/>
<rect x="225" y="240" width="150" height="25" rx="5" fill="url(#silver)"/>
<rect x="165" y="205" width="270" height="50" rx="8" fill="url(#capGrad)"/>
<rect x="168" y="208" width="264" height="25" rx="5" fill="#60A5FA" opacity="0.3"/>
<rect x="205.5" y="210" width="67.5" height="35" rx="3" fill="#FFF" opacity="0.25"/>
<rect x="180" y="330" width="240" height="240" rx="8" fill="#FFFFFF" opacity="0.95"/>
<rect x="180" y="330" width="240" height="240" rx="8" fill="none" stroke="#E2E8F0" stroke-width="1"/>
<text x="300" y="405" text-anchor="middle" font-family="system-ui,-apple-system,sans-serif" font-weight="700" font-size="48" fill="#1E293B" letter-spacing="-0.5">Melanotan II</text>

<rect x="235" y="445" width="130" height="48" rx="24" fill="none" stroke="#334155" stroke-width="2.5"/>
<text x="300" y="477" text-anchor="middle" font-family="system-ui,-apple-system,sans-serif" font-weight="600" font-size="36" fill="#334155" letter-spacing="1">10MG</text>
<text x="300" y="545" text-anchor="middle" font-family="system-ui,-apple-system,sans-serif" font-weight="400" font-size="18" fill="#94A3B8" letter-spacing="0.5">For Research Use Only</text>
<rect x="175" y="280" width="35" height="400" rx="15" fill="url(#shine)" opacity="0.6"/>
<rect x="385" y="290" width="20" height="380" rx="8" fill="#FFFFFF" opacity="0.2"/>
</svg>